HIERARCHY
ROOT root
{
	OFFSET 0.000000 0.000000 0.000000
	CHANNELS 6 Xposition Yposition Zposition Zrotation Yrotation Xrotation
	JOINT lhip
	{
		OFFSET 0.058581 -0.082280 -0.017664
		CHANNELS 3 Zrotation Yrotation Xrotation
		JOINT lknee
		{
			OFFSET 0.043451 -0.386469 0.008037
			CHANNELS 3 Zrotation Yrotation Xrotation
			JOINT lankle
			{
				OFFSET -0.014790 -0.426874 -0.037428
				CHANNELS 3 Zrotation Yrotation Xrotation
				JOINT ltoe
				{
					OFFSET 0.041054 -0.060286 0.122042
					CHANNELS 3 Zrotation Yrotation Xrotation
					End Site
					{
						OFFSET 0.000000 0.000000 0.000000
					}
				}
			}
		}
	}
	JOINT rhip
	{
		OFFSET -0.060310 -0.090513 -0.013543
		CHANNELS 3 Zrotation Yrotation Xrotation
		JOINT rknee
		{
			OFFSET -0.043257 -0.383688 -0.004843
			CHANNELS 3 Zrotation Yrotation Xrotation
			JOINT rankle
			{
				OFFSET 0.019056 -0.420046 -0.034562
				CHANNELS 3 Zrotation Yrotation Xrotation
				JOINT rtoe
				{
					OFFSET -0.034840 -0.062106 0.130323
					CHANNELS 3 Zrotation Yrotation Xrotation
					End Site
					{
						OFFSET 0.000000 0.000000 0.000000
					}
				}
			}
		}
	}
	JOINT lowerback
	{
		OFFSET 0.004439 0.124404 -0.038385
		CHANNELS 3 Zrotation Yrotation Xrotation
		JOINT upperback
		{
			OFFSET 0.004488 0.137956 0.026820
			CHANNELS 3 Zrotation Yrotation Xrotation
			JOINT chest
			{
				OFFSET -0.002265 0.056032 0.002855
				CHANNELS 3 Zrotation Yrotation Xrotation
				JOINT lowerneck
				{
					OFFSET -0.013390 0.211636 -0.033468
					CHANNELS 3 Zrotation Yrotation Xrotation
					JOINT upperneck
					{
						OFFSET 0.010113 0.088937 0.050410
						CHANNELS 3 Zrotation Yrotation Xrotation
						End Site
						{
							OFFSET 0.000000 0.000000 0.000000
						}
					}
				}
				JOINT lclavicle
				{
					OFFSET 0.071702 0.114000 -0.018898
					CHANNELS 3 Zrotation Yrotation Xrotation
					JOINT lshoulder
					{
						OFFSET 0.122921 0.045205 -0.019046
						CHANNELS 3 Zrotation Yrotation Xrotation
						JOINT lelbow
						{
							OFFSET 0.255332 -0.015649 -0.022946
							CHANNELS 3 Zrotation Yrotation Xrotation
							JOINT lwrist
							{
								OFFSET 0.265709 0.012698 -0.007375
								CHANNELS 3 Zrotation Yrotation Xrotation
								End Site
								{
									OFFSET 0.000000 0.000000 0.000000
								}
							}
						}
					}
				}
				JOINT rclavicle
				{
					OFFSET -0.082954 0.112472 -0.023707
					CHANNELS 3 Zrotation Yrotation Xrotation
					JOINT rshoulder
					{
						OFFSET -0.113228 0.046853 -0.008472
						CHANNELS 3 Zrotation Yrotation Xrotation
						JOINT relbow
						{
							OFFSET -0.260127 -0.014369 -0.031269
							CHANNELS 3 Zrotation Yrotation Xrotation
							JOINT rwrist
							{
								OFFSET -0.269108 0.006794 -0.006027
								CHANNELS 3 Zrotation Yrotation Xrotation
								End Site
								{
									OFFSET 0.000000 0.000000 0.000000
								}
							}
						}
					}
				}
			}
		}
	}
}
MOTION
Frames: 7
Frame Time: 0.033333
0.101666 0.376736 0.932590 -11.945212 3.531122 84.532777 9.167482 14.115127 -10.686286 -2.808716 12.377443 43.975711 2.297240 28.334707 -32.842349 0.000000 -0.000000 0.000000 -14.045275 -15.200533 -38.087023 0.092851 -14.149554 51.586908 4.135896 -24.431205 -26.376022 0.000000 -0.000000 0.000000 2.319047 -4.637613 17.800735 1.183628 -0.488238 -11.382019 0.197807 -0.361857 -7.677173 -1.104783 -15.739238 -3.048178 1.135397 -19.917695 -23.522818 8.232775 5.880500 -7.532787 -2.985119 0.756425 -5.833199 6.564682 -18.228764 11.663520 -24.548680 0.598487 33.393664 -5.563705 6.983742 -9.633010 5.340944 8.670312 -6.045491 7.641413 37.307540 33.291660 13.443399 9.181758 28.048886 
0.096326 0.377730 0.931684 -10.328049 3.172417 83.941692 9.531123 13.045616 -10.360145 -3.618633 11.943499 44.222257 2.963350 28.787499 -32.345651 0.000000 -0.000000 0.000000 -13.502471 -13.641716 -37.461349 1.080766 -14.773090 64.792889 3.724972 -22.224665 -26.872085 0.000000 -0.000000 0.000000 1.184139 -4.856978 18.790343 1.586669 -0.713482 -10.122785 0.386284 -0.416498 -8.021049 -0.402268 -15.930137 -1.129052 1.546088 -20.867718 -22.803456 9.544539 5.972645 -7.045600 -3.493871 -1.358691 -8.119009 7.375891 -17.858885 9.395784 -29.048021 4.611463 36.264421 -5.626109 8.591104 -8.951435 6.577061 11.768857 -6.323186 1.437649 24.399054 28.266580 19.670443 5.316739 28.180127 
0.088171 0.378764 0.930054 -8.500245 2.123544 84.485728 8.961960 11.447142 -11.239453 -3.836522 12.166153 44.241814 3.694162 28.735734 -31.633087 0.000000 -0.000000 0.000000 -11.863840 -11.064189 -35.262826 2.932063 -13.450872 68.516323 3.356109 -20.035108 -26.374278 0.000000 -0.000000 0.000000 -0.699845 -4.306720 18.148574 1.798428 -1.276114 -8.368573 0.580449 -0.555376 -8.433086 -0.213955 -16.086850 0.345741 2.084229 -21.495862 -21.841449 10.474784 6.171983 -6.797417 -3.478525 -3.846228 -9.754300 8.185332 -17.656260 7.563243 -33.106884 8.458292 39.149276 -5.552657 9.076898 -8.710073 8.446593 14.499048 -6.581091 -3.860503 14.009468 22.598323 25.567773 2.110059 26.746105 
0.077666 0.378605 0.928453 -6.463284 0.479995 85.663494 8.126644 10.416396 -12.684874 -4.165521 12.426815 44.251761 3.880266 27.650055 -30.818053 0.000000 -0.000000 0.000000 -9.694074 -8.968511 -31.119484 4.137898 -9.538806 60.556096 1.871454 -21.061076 -25.615059 0.000000 -0.000000 0.000000 -3.033235 -3.318324 16.545671 1.579249 -2.185796 -7.167378 0.743834 -0.975103 -8.009554 -0.409729 -15.821609 0.909810 2.116517 -21.244939 -19.868449 10.818245 6.477655 -6.605805 -2.887298 -5.803325 -10.969238 8.733870 -18.432812 5.659834 -37.072004 12.005862 40.476792 -5.304823 8.122529 -9.184190 10.687489 16.625580 -6.439878 -6.868215 8.709444 17.649400 32.463269 -0.604983 23.326163 
0.065871 0.377502 0.928647 -3.746580 -0.756539 86.394189 8.182673 9.785304 -13.856056 -5.026575 11.972482 44.552986 3.610342 25.759700 -29.953802 0.000000 -0.000000 0.000000 -8.859616 -8.101463 -29.126111 3.108240 -8.247490 56.284235 -0.036987 -23.232196 -24.649531 0.000000 -0.000000 0.000000 -4.846114 -3.178359 16.098433 1.144230 -3.023900 -6.740584 0.541993 -1.530241 -7.787664 -1.014098 -14.643249 1.647371 2.035411 -20.136788 -17.691960 10.524402 7.153618 -6.219842 -2.270805 -7.076609 -11.385937 9.721528 -20.553444 4.035115 -38.604340 13.190246 39.831161 -4.442272 6.470332 -9.464761 12.982374 17.503363 -5.910963 -7.878987 8.412573 12.252156 36.703960 0.037839 17.097704 
0.053599 0.375808 0.930536 -0.834317 -0.622578 86.671428 9.951598 9.761240 -14.789798 -6.121218 11.203380 45.007195 2.978026 23.289102 -28.946892 0.000000 -0.000000 0.000000 -9.009271 -8.079304 -28.948384 2.254984 -10.912215 56.852642 -0.154298 -23.413316 -23.784227 0.000000 -0.000000 0.000000 -5.313767 -3.663695 16.727564 0.902227 -3.615275 -6.507962 0.257094 -1.979635 -7.797578 -1.806065 -11.997576 2.461038 1.440279 -18.433647 -15.998334 8.947813 8.374832 -6.339623 -2.790524 -7.794959 -10.773486 12.362402 -24.734607 1.023873 -35.408425 10.954885 37.914047 -2.719509 4.611671 -9.834435 14.961430 16.785934 -4.888777 -7.757940 13.216151 6.193673 35.426824 3.973199 8.101650 
0.039667 0.373394 0.932803 1.750674 0.081384 86.844988 12.627539 10.877154 -15.846758 -7.444635 10.452906 45.845407 1.993990 20.538944 -27.508239 0.000000 -0.000000 0.000000 -8.185032 -8.862955 -27.357739 1.966479 -13.013780 55.704093 -0.356436 -23.092833 -24.470867 0.000000 -0.000000 0.000000 -5.740313 -3.627538 17.466326 0.739766 -4.047057 -6.774585 0.322677 -2.430800 -6.728063 -2.495517 -8.064271 2.755210 0.471538 -15.593820 -14.545259 5.734037 9.453724 -6.465644 -3.989895 -7.421266 -9.997362 16.140274 -31.569051 -3.235012 -24.750190 4.183126 34.384318 -0.113410 2.109477 -9.955739 17.478439 14.223083 -4.109673 -6.932195 25.326883 0.184716 25.371638 8.657286 -4.675727 
